# xmcd
#
# Track frame offsets:
#	150
#	14377
#	28859
#	42548
#	55782
#	69366
#	83425
#	96799
#	109280
#	120550
#	130764
#	142972
#	154561
#	168998
#	182717
#	194367
#	209189
#	223651
#	235782
#	248353
#
# Disc length: 3478 seconds
#
# Revision: 1
# Processed by: cddbd v1.5.2PL0 Copyright (c) Steve Scherf et al.
# Submitted via: MusicManager 7.3.0.0 
#
DISCID=110d9414
DTITLE=John Lee Hooker - Boogie Chillen - Disk 01
DYEAR=1174
DGENRE=Blues
TTITLE0=Boogie Chillen
TTITLE1=Sally Mae
TTITLE2=Hobo Blues
TTITLE3=Hoogie Boogie
TTITLE4=Crawlin' King Snake
TTITLE5=I'm In The Mood
TTITLE6=Build Myself A Cave
TTITLE7=Canal Street Blues
TTITLE8=Goin' Fown Highway 51
TTITLE9=Sail On, Little Girl, Sail On
TTITLE10=Rollin' Blues
TTITLE11=Queen Bee
TTITLE12=Women In My Life
TTITLE13=TeaseMe Baby
TTITLE14=Little Boy Blue
TTITLE15=My Daddy Was A Jockey
TTITLE16=How Long Must I Be Your Slave?
TTITLE17=Miss Eloise
TTITLE18=It's A Crime And A Shame
TTITLE19=Graveyard Blues
EXTD=YEAR: 2006
EXTT0=
EXTT1=
EXTT2=
EXTT3=
EXTT4=
EXTT5=
EXTT6=
EXTT7=
EXTT8=
EXTT9=
EXTT10=
EXTT11=
EXTT12=
EXTT13=
EXTT14=
EXTT15=
EXTT16=
EXTT17=
EXTT18=
EXTT19=
PLAYORDER=
